<mxfile host="app.diagrams.net" agent="Mozilla/5.0 (Windows NT 10.0; Win64; x64) AppleWebKit/537.36 (KHTML, like Gecko) Chrome/129.0.0.0 Safari/537.36" version="24.8.0">
  <diagram name="Page-1" id="zs1MpsAgS46VvO_Qj2_o">
    <mxGraphModel dx="-2056" dy="2442" grid="1" gridSize="10" guides="1" tooltips="1" connect="1" arrows="1" fold="1" page="1" pageScale="1" pageWidth="850" pageHeight="1100" math="0" shadow="0">
      <root>
        <mxCell id="0" />
        <mxCell id="1" parent="0" />
        <mxCell id="aTRIupy0cioZrIS3Y0Zn-1" value="" style="group" vertex="1" connectable="0" parent="1">
          <mxGeometry x="5160" y="-920" width="760" height="720" as="geometry" />
        </mxCell>
        <mxCell id="aTRIupy0cioZrIS3Y0Zn-2" style="edgeStyle=orthogonalEdgeStyle;rounded=0;orthogonalLoop=1;jettySize=auto;html=1;exitX=1;exitY=0.5;exitDx=0;exitDy=0;entryX=0;entryY=0.5;entryDx=0;entryDy=0;" edge="1" parent="aTRIupy0cioZrIS3Y0Zn-1" source="aTRIupy0cioZrIS3Y0Zn-3" target="aTRIupy0cioZrIS3Y0Zn-8">
          <mxGeometry relative="1" as="geometry" />
        </mxCell>
        <mxCell id="aTRIupy0cioZrIS3Y0Zn-3" value="Start Make" style="ellipse;whiteSpace=wrap;html=1;" vertex="1" parent="aTRIupy0cioZrIS3Y0Zn-1">
          <mxGeometry y="10" width="120" height="40" as="geometry" />
        </mxCell>
        <mxCell id="aTRIupy0cioZrIS3Y0Zn-4" value="End Make" style="ellipse;whiteSpace=wrap;html=1;" vertex="1" parent="aTRIupy0cioZrIS3Y0Zn-1">
          <mxGeometry x="640" y="100" width="120" height="40" as="geometry" />
        </mxCell>
        <mxCell id="aTRIupy0cioZrIS3Y0Zn-5" style="edgeStyle=orthogonalEdgeStyle;rounded=0;orthogonalLoop=1;jettySize=auto;html=1;exitX=0;exitY=0.5;exitDx=0;exitDy=0;entryX=0.5;entryY=0;entryDx=0;entryDy=0;" edge="1" parent="aTRIupy0cioZrIS3Y0Zn-1" source="aTRIupy0cioZrIS3Y0Zn-6" target="aTRIupy0cioZrIS3Y0Zn-16">
          <mxGeometry relative="1" as="geometry" />
        </mxCell>
        <mxCell id="aTRIupy0cioZrIS3Y0Zn-6" value="getline(cin, input)" style="shape=parallelogram;perimeter=parallelogramPerimeter;whiteSpace=wrap;html=1;fixedSize=1;rounded=0;" vertex="1" parent="aTRIupy0cioZrIS3Y0Zn-1">
          <mxGeometry x="302" y="90" width="146" height="60" as="geometry" />
        </mxCell>
        <mxCell id="aTRIupy0cioZrIS3Y0Zn-7" style="edgeStyle=orthogonalEdgeStyle;rounded=0;orthogonalLoop=1;jettySize=auto;html=1;exitX=1;exitY=0.5;exitDx=0;exitDy=0;entryX=0;entryY=0.5;entryDx=0;entryDy=0;" edge="1" parent="aTRIupy0cioZrIS3Y0Zn-1" source="aTRIupy0cioZrIS3Y0Zn-8" target="aTRIupy0cioZrIS3Y0Zn-10">
          <mxGeometry relative="1" as="geometry" />
        </mxCell>
        <mxCell id="aTRIupy0cioZrIS3Y0Zn-8" value="Declare:&lt;div&gt;string input&lt;/div&gt;&lt;div&gt;bool invalid = true&lt;/div&gt;" style="rounded=0;whiteSpace=wrap;html=1;" vertex="1" parent="aTRIupy0cioZrIS3Y0Zn-1">
          <mxGeometry x="150" width="120" height="60" as="geometry" />
        </mxCell>
        <mxCell id="aTRIupy0cioZrIS3Y0Zn-9" style="edgeStyle=orthogonalEdgeStyle;rounded=0;orthogonalLoop=1;jettySize=auto;html=1;exitX=1;exitY=0.5;exitDx=0;exitDy=0;" edge="1" parent="aTRIupy0cioZrIS3Y0Zn-1" source="aTRIupy0cioZrIS3Y0Zn-10" target="aTRIupy0cioZrIS3Y0Zn-13">
          <mxGeometry relative="1" as="geometry" />
        </mxCell>
        <mxCell id="aTRIupy0cioZrIS3Y0Zn-10" value="Output -&lt;div&gt;ask for guess&lt;/div&gt;" style="shape=parallelogram;perimeter=parallelogramPerimeter;whiteSpace=wrap;html=1;fixedSize=1;rounded=0;" vertex="1" parent="aTRIupy0cioZrIS3Y0Zn-1">
          <mxGeometry x="302" width="146" height="60" as="geometry" />
        </mxCell>
        <mxCell id="aTRIupy0cioZrIS3Y0Zn-11" style="edgeStyle=orthogonalEdgeStyle;rounded=0;orthogonalLoop=1;jettySize=auto;html=1;exitX=0;exitY=0.5;exitDx=0;exitDy=0;entryX=1;entryY=0.5;entryDx=0;entryDy=0;" edge="1" parent="aTRIupy0cioZrIS3Y0Zn-1" source="aTRIupy0cioZrIS3Y0Zn-13" target="aTRIupy0cioZrIS3Y0Zn-6">
          <mxGeometry relative="1" as="geometry" />
        </mxCell>
        <mxCell id="aTRIupy0cioZrIS3Y0Zn-12" style="edgeStyle=orthogonalEdgeStyle;rounded=0;orthogonalLoop=1;jettySize=auto;html=1;exitX=1;exitY=0.5;exitDx=0;exitDy=0;entryX=0;entryY=0.5;entryDx=0;entryDy=0;" edge="1" parent="aTRIupy0cioZrIS3Y0Zn-1" source="aTRIupy0cioZrIS3Y0Zn-13" target="aTRIupy0cioZrIS3Y0Zn-4">
          <mxGeometry relative="1" as="geometry">
            <mxPoint x="640" y="120.23529411764707" as="targetPoint" />
          </mxGeometry>
        </mxCell>
        <mxCell id="aTRIupy0cioZrIS3Y0Zn-13" value="while&amp;nbsp;&lt;div&gt;invalid&lt;/div&gt;" style="rhombus;whiteSpace=wrap;html=1;" vertex="1" parent="aTRIupy0cioZrIS3Y0Zn-1">
          <mxGeometry x="470" y="80" width="150" height="80" as="geometry" />
        </mxCell>
        <mxCell id="aTRIupy0cioZrIS3Y0Zn-14" style="edgeStyle=orthogonalEdgeStyle;rounded=0;orthogonalLoop=1;jettySize=auto;html=1;exitX=0.5;exitY=1;exitDx=0;exitDy=0;entryX=0.5;entryY=0;entryDx=0;entryDy=0;" edge="1" parent="aTRIupy0cioZrIS3Y0Zn-1" source="aTRIupy0cioZrIS3Y0Zn-16" target="aTRIupy0cioZrIS3Y0Zn-18">
          <mxGeometry relative="1" as="geometry" />
        </mxCell>
        <mxCell id="aTRIupy0cioZrIS3Y0Zn-15" style="edgeStyle=orthogonalEdgeStyle;rounded=0;orthogonalLoop=1;jettySize=auto;html=1;exitX=1;exitY=0.5;exitDx=0;exitDy=0;entryX=0;entryY=0.5;entryDx=0;entryDy=0;" edge="1" parent="aTRIupy0cioZrIS3Y0Zn-1" source="aTRIupy0cioZrIS3Y0Zn-16" target="aTRIupy0cioZrIS3Y0Zn-38">
          <mxGeometry relative="1" as="geometry" />
        </mxCell>
        <mxCell id="aTRIupy0cioZrIS3Y0Zn-16" value="if&lt;div&gt;input.length() == size&lt;/div&gt;&lt;div&gt;&lt;br&gt;&lt;/div&gt;" style="rhombus;whiteSpace=wrap;html=1;" vertex="1" parent="aTRIupy0cioZrIS3Y0Zn-1">
          <mxGeometry x="135" y="180.25" width="150" height="80" as="geometry" />
        </mxCell>
        <mxCell id="aTRIupy0cioZrIS3Y0Zn-17" style="edgeStyle=orthogonalEdgeStyle;rounded=0;orthogonalLoop=1;jettySize=auto;html=1;exitX=0.5;exitY=1;exitDx=0;exitDy=0;entryX=0.5;entryY=0;entryDx=0;entryDy=0;" edge="1" parent="aTRIupy0cioZrIS3Y0Zn-1" source="aTRIupy0cioZrIS3Y0Zn-18" target="aTRIupy0cioZrIS3Y0Zn-20">
          <mxGeometry relative="1" as="geometry" />
        </mxCell>
        <mxCell id="aTRIupy0cioZrIS3Y0Zn-18" value="invalid = false" style="rounded=0;whiteSpace=wrap;html=1;" vertex="1" parent="aTRIupy0cioZrIS3Y0Zn-1">
          <mxGeometry x="150" y="280" width="120" height="60" as="geometry" />
        </mxCell>
        <mxCell id="aTRIupy0cioZrIS3Y0Zn-19" style="edgeStyle=orthogonalEdgeStyle;rounded=0;orthogonalLoop=1;jettySize=auto;html=1;exitX=0.5;exitY=1;exitDx=0;exitDy=0;entryX=0.5;entryY=0;entryDx=0;entryDy=0;" edge="1" parent="aTRIupy0cioZrIS3Y0Zn-1" source="aTRIupy0cioZrIS3Y0Zn-20" target="aTRIupy0cioZrIS3Y0Zn-23">
          <mxGeometry relative="1" as="geometry" />
        </mxCell>
        <mxCell id="aTRIupy0cioZrIS3Y0Zn-20" value="i = 0" style="rounded=0;whiteSpace=wrap;html=1;" vertex="1" parent="aTRIupy0cioZrIS3Y0Zn-1">
          <mxGeometry x="150" y="360" width="120" height="60" as="geometry" />
        </mxCell>
        <mxCell id="aTRIupy0cioZrIS3Y0Zn-21" style="edgeStyle=orthogonalEdgeStyle;rounded=0;orthogonalLoop=1;jettySize=auto;html=1;exitX=0.5;exitY=1;exitDx=0;exitDy=0;" edge="1" parent="aTRIupy0cioZrIS3Y0Zn-1" source="aTRIupy0cioZrIS3Y0Zn-23" target="aTRIupy0cioZrIS3Y0Zn-28">
          <mxGeometry relative="1" as="geometry" />
        </mxCell>
        <mxCell id="aTRIupy0cioZrIS3Y0Zn-22" style="edgeStyle=orthogonalEdgeStyle;rounded=0;orthogonalLoop=1;jettySize=auto;html=1;exitX=1;exitY=0.5;exitDx=0;exitDy=0;entryX=0.5;entryY=1;entryDx=0;entryDy=0;" edge="1" parent="aTRIupy0cioZrIS3Y0Zn-1" source="aTRIupy0cioZrIS3Y0Zn-23" target="aTRIupy0cioZrIS3Y0Zn-13">
          <mxGeometry relative="1" as="geometry" />
        </mxCell>
        <mxCell id="aTRIupy0cioZrIS3Y0Zn-23" value="&lt;div&gt;i &amp;lt; size&lt;/div&gt;" style="rhombus;whiteSpace=wrap;html=1;" vertex="1" parent="aTRIupy0cioZrIS3Y0Zn-1">
          <mxGeometry x="340" y="460" width="150" height="80" as="geometry" />
        </mxCell>
        <mxCell id="aTRIupy0cioZrIS3Y0Zn-24" style="edgeStyle=orthogonalEdgeStyle;rounded=0;orthogonalLoop=1;jettySize=auto;html=1;exitX=1;exitY=0.5;exitDx=0;exitDy=0;entryX=0;entryY=0.5;entryDx=0;entryDy=0;" edge="1" parent="aTRIupy0cioZrIS3Y0Zn-1" source="aTRIupy0cioZrIS3Y0Zn-25" target="aTRIupy0cioZrIS3Y0Zn-23">
          <mxGeometry relative="1" as="geometry" />
        </mxCell>
        <mxCell id="aTRIupy0cioZrIS3Y0Zn-25" value="i++" style="rounded=0;whiteSpace=wrap;html=1;" vertex="1" parent="aTRIupy0cioZrIS3Y0Zn-1">
          <mxGeometry x="165" y="470" width="120" height="60" as="geometry" />
        </mxCell>
        <mxCell id="aTRIupy0cioZrIS3Y0Zn-26" style="edgeStyle=orthogonalEdgeStyle;rounded=0;orthogonalLoop=1;jettySize=auto;html=1;exitX=0.5;exitY=1;exitDx=0;exitDy=0;entryX=0.5;entryY=0;entryDx=0;entryDy=0;" edge="1" parent="aTRIupy0cioZrIS3Y0Zn-1" source="aTRIupy0cioZrIS3Y0Zn-28" target="aTRIupy0cioZrIS3Y0Zn-32">
          <mxGeometry relative="1" as="geometry" />
        </mxCell>
        <mxCell id="aTRIupy0cioZrIS3Y0Zn-27" style="edgeStyle=orthogonalEdgeStyle;rounded=0;orthogonalLoop=1;jettySize=auto;html=1;exitX=0;exitY=0.5;exitDx=0;exitDy=0;entryX=1;entryY=0.5;entryDx=0;entryDy=0;" edge="1" parent="aTRIupy0cioZrIS3Y0Zn-1" source="aTRIupy0cioZrIS3Y0Zn-28" target="aTRIupy0cioZrIS3Y0Zn-30">
          <mxGeometry relative="1" as="geometry" />
        </mxCell>
        <mxCell id="aTRIupy0cioZrIS3Y0Zn-28" value="&lt;div&gt;if&amp;nbsp;&lt;span style=&quot;background-color: initial;&quot;&gt;input[i]&amp;nbsp;&lt;/span&gt;&lt;/div&gt;&lt;div&gt;is digit &amp;amp; in range&lt;/div&gt;" style="rhombus;whiteSpace=wrap;html=1;" vertex="1" parent="aTRIupy0cioZrIS3Y0Zn-1">
          <mxGeometry x="340" y="560" width="150" height="80" as="geometry" />
        </mxCell>
        <mxCell id="aTRIupy0cioZrIS3Y0Zn-29" style="edgeStyle=orthogonalEdgeStyle;rounded=0;orthogonalLoop=1;jettySize=auto;html=1;exitX=0.5;exitY=0;exitDx=0;exitDy=0;entryX=0.5;entryY=1;entryDx=0;entryDy=0;" edge="1" parent="aTRIupy0cioZrIS3Y0Zn-1" source="aTRIupy0cioZrIS3Y0Zn-30" target="aTRIupy0cioZrIS3Y0Zn-25">
          <mxGeometry relative="1" as="geometry" />
        </mxCell>
        <mxCell id="aTRIupy0cioZrIS3Y0Zn-30" value="guess[i] =&amp;nbsp;&lt;span style=&quot;background-color: initial;&quot;&gt;input[i] + &#39;0&#39;&lt;/span&gt;" style="rounded=0;whiteSpace=wrap;html=1;" vertex="1" parent="aTRIupy0cioZrIS3Y0Zn-1">
          <mxGeometry x="165" y="570" width="120" height="60" as="geometry" />
        </mxCell>
        <mxCell id="aTRIupy0cioZrIS3Y0Zn-31" style="edgeStyle=orthogonalEdgeStyle;rounded=0;orthogonalLoop=1;jettySize=auto;html=1;exitX=0;exitY=0.5;exitDx=0;exitDy=0;entryX=1;entryY=0.5;entryDx=0;entryDy=0;" edge="1" parent="aTRIupy0cioZrIS3Y0Zn-1" source="aTRIupy0cioZrIS3Y0Zn-32" target="aTRIupy0cioZrIS3Y0Zn-34">
          <mxGeometry relative="1" as="geometry" />
        </mxCell>
        <mxCell id="aTRIupy0cioZrIS3Y0Zn-32" value="&lt;div&gt;&lt;br&gt;&lt;/div&gt;else&amp;nbsp;&lt;span style=&quot;background-color: initial;&quot;&gt;Output -&lt;/span&gt;&lt;div&gt;&lt;div&gt;not in range&lt;/div&gt;&lt;/div&gt;" style="shape=parallelogram;perimeter=parallelogramPerimeter;whiteSpace=wrap;html=1;fixedSize=1;rounded=0;" vertex="1" parent="aTRIupy0cioZrIS3Y0Zn-1">
          <mxGeometry x="342" y="660" width="146" height="60" as="geometry" />
        </mxCell>
        <mxCell id="aTRIupy0cioZrIS3Y0Zn-33" style="edgeStyle=orthogonalEdgeStyle;rounded=0;orthogonalLoop=1;jettySize=auto;html=1;exitX=0;exitY=0.5;exitDx=0;exitDy=0;entryX=1;entryY=0.5;entryDx=0;entryDy=0;" edge="1" parent="aTRIupy0cioZrIS3Y0Zn-1" source="aTRIupy0cioZrIS3Y0Zn-34" target="aTRIupy0cioZrIS3Y0Zn-36">
          <mxGeometry relative="1" as="geometry" />
        </mxCell>
        <mxCell id="aTRIupy0cioZrIS3Y0Zn-34" value="invalid = true" style="rounded=0;whiteSpace=wrap;html=1;" vertex="1" parent="aTRIupy0cioZrIS3Y0Zn-1">
          <mxGeometry x="165" y="660" width="120" height="60" as="geometry" />
        </mxCell>
        <mxCell id="aTRIupy0cioZrIS3Y0Zn-35" style="edgeStyle=orthogonalEdgeStyle;rounded=0;orthogonalLoop=1;jettySize=auto;html=1;exitX=0.5;exitY=0;exitDx=0;exitDy=0;entryX=0;entryY=0.5;entryDx=0;entryDy=0;" edge="1" parent="aTRIupy0cioZrIS3Y0Zn-1" source="aTRIupy0cioZrIS3Y0Zn-36" target="aTRIupy0cioZrIS3Y0Zn-25">
          <mxGeometry relative="1" as="geometry" />
        </mxCell>
        <mxCell id="aTRIupy0cioZrIS3Y0Zn-36" value="i = size" style="rounded=0;whiteSpace=wrap;html=1;" vertex="1" parent="aTRIupy0cioZrIS3Y0Zn-1">
          <mxGeometry x="20" y="660" width="120" height="60" as="geometry" />
        </mxCell>
        <mxCell id="aTRIupy0cioZrIS3Y0Zn-37" style="edgeStyle=orthogonalEdgeStyle;rounded=0;orthogonalLoop=1;jettySize=auto;html=1;exitX=0.5;exitY=1;exitDx=0;exitDy=0;entryX=0.5;entryY=0;entryDx=0;entryDy=0;" edge="1" parent="aTRIupy0cioZrIS3Y0Zn-1" source="aTRIupy0cioZrIS3Y0Zn-38" target="aTRIupy0cioZrIS3Y0Zn-40">
          <mxGeometry relative="1" as="geometry" />
        </mxCell>
        <mxCell id="aTRIupy0cioZrIS3Y0Zn-38" value="else Output -&lt;div&gt;wrong size&lt;/div&gt;" style="shape=parallelogram;perimeter=parallelogramPerimeter;whiteSpace=wrap;html=1;fixedSize=1;rounded=0;" vertex="1" parent="aTRIupy0cioZrIS3Y0Zn-1">
          <mxGeometry x="302" y="190.25" width="146" height="60" as="geometry" />
        </mxCell>
        <mxCell id="aTRIupy0cioZrIS3Y0Zn-39" style="edgeStyle=orthogonalEdgeStyle;rounded=0;orthogonalLoop=1;jettySize=auto;html=1;exitX=1;exitY=0.5;exitDx=0;exitDy=0;entryX=0.5;entryY=1;entryDx=0;entryDy=0;" edge="1" parent="aTRIupy0cioZrIS3Y0Zn-1" source="aTRIupy0cioZrIS3Y0Zn-40" target="aTRIupy0cioZrIS3Y0Zn-13">
          <mxGeometry relative="1" as="geometry" />
        </mxCell>
        <mxCell id="aTRIupy0cioZrIS3Y0Zn-40" value="invalid = true" style="rounded=0;whiteSpace=wrap;html=1;" vertex="1" parent="aTRIupy0cioZrIS3Y0Zn-1">
          <mxGeometry x="315" y="280" width="120" height="60" as="geometry" />
        </mxCell>
        <mxCell id="aTRIupy0cioZrIS3Y0Zn-41" value="No" style="text;html=1;strokeColor=none;fillColor=none;align=center;verticalAlign=middle;whiteSpace=wrap;rounded=0;" vertex="1" parent="aTRIupy0cioZrIS3Y0Zn-1">
          <mxGeometry x="590" y="90" width="60" height="30" as="geometry" />
        </mxCell>
        <mxCell id="aTRIupy0cioZrIS3Y0Zn-42" value="Yes" style="text;html=1;strokeColor=none;fillColor=none;align=center;verticalAlign=middle;whiteSpace=wrap;rounded=0;" vertex="1" parent="aTRIupy0cioZrIS3Y0Zn-1">
          <mxGeometry x="435" y="90" width="60" height="30" as="geometry" />
        </mxCell>
        <mxCell id="aTRIupy0cioZrIS3Y0Zn-43" value="No" style="text;html=1;strokeColor=none;fillColor=none;align=center;verticalAlign=middle;whiteSpace=wrap;rounded=0;" vertex="1" parent="aTRIupy0cioZrIS3Y0Zn-1">
          <mxGeometry x="260" y="190.25" width="60" height="30" as="geometry" />
        </mxCell>
        <mxCell id="aTRIupy0cioZrIS3Y0Zn-44" value="Yes" style="text;html=1;strokeColor=none;fillColor=none;align=center;verticalAlign=middle;whiteSpace=wrap;rounded=0;" vertex="1" parent="aTRIupy0cioZrIS3Y0Zn-1">
          <mxGeometry x="160" y="250.25" width="60" height="30" as="geometry" />
        </mxCell>
        <mxCell id="aTRIupy0cioZrIS3Y0Zn-45" value="No" style="text;html=1;strokeColor=none;fillColor=none;align=center;verticalAlign=middle;whiteSpace=wrap;rounded=0;" vertex="1" parent="aTRIupy0cioZrIS3Y0Zn-1">
          <mxGeometry x="480" y="470" width="60" height="30" as="geometry" />
        </mxCell>
        <mxCell id="aTRIupy0cioZrIS3Y0Zn-46" value="Yes" style="text;html=1;strokeColor=none;fillColor=none;align=center;verticalAlign=middle;whiteSpace=wrap;rounded=0;" vertex="1" parent="aTRIupy0cioZrIS3Y0Zn-1">
          <mxGeometry x="365" y="540" width="60" height="30" as="geometry" />
        </mxCell>
        <mxCell id="aTRIupy0cioZrIS3Y0Zn-47" value="No" style="text;html=1;strokeColor=none;fillColor=none;align=center;verticalAlign=middle;whiteSpace=wrap;rounded=0;" vertex="1" parent="aTRIupy0cioZrIS3Y0Zn-1">
          <mxGeometry x="365" y="630" width="60" height="30" as="geometry" />
        </mxCell>
        <mxCell id="aTRIupy0cioZrIS3Y0Zn-48" value="Yes" style="text;html=1;strokeColor=none;fillColor=none;align=center;verticalAlign=middle;whiteSpace=wrap;rounded=0;" vertex="1" parent="aTRIupy0cioZrIS3Y0Zn-1">
          <mxGeometry x="302" y="570" width="60" height="30" as="geometry" />
        </mxCell>
      </root>
    </mxGraphModel>
  </diagram>
</mxfile>
